 http://imageshack.us/m/14/2336/fertileground2010.jpg

Country.......: USA
Genre.........: Horror, Thriller
Date release..: 2010 [World]
Director......: Adam Gierasch
Writers.......: Jace Anderson, Adam Gierasch
Duration......: 95 min.
More..........: http://www.imdb.com/title/tt1515199
Trailer.......: http://www.imdb.com/video/screenplay/vi2627706137
Trailer.......:

Pilot :
Emily and Nate Weaver leave the city for the rural comfort of Nate's ancestral home in the country. Once there, Emily is plagued by horrifying visions and haunted by the ghosts inhabiting their isolated new home. When Nates behavior undergoes a strange and fearful metamorphous, Emily fears she might be the latest target in a murderous tradition

Cats :
Gale Harold   	 ...  	Nate Weaver
Leisha Hailey 	... 	Emily Weaver
Chelcie Ross 	... 	Avery
Jami Bassman 	... 	Mary Weaver
Kailah Combs 	... 	Ghost Girl
Ingrid Coree 	... 	Art dealer
Clint Curtis 	... 	Felipe
Steve Janousek 	... 	Doctor #2
JoNell Kennedy 	... 	Brittany McGraw
James Stordahl 	... 	Doctor #1 

Data Technical :
!!! SAMPLE !!!
Audio.....: English
Subtitles.: None
Format                           : AVI
Format/Info                      : Audio Video Interleave
File size                        : 697 MiB
Duration                         : 1h 34mn
Overall bit rate                 : 1 026 Kbps
Writing application              : VirtualDubMod 1.5.10.2 (build 2540/release)
Writing library                  : VirtualDubMod build 2540/release
Video
ID                               : 0
Format                           : MPEG-4 Visual
Format profile                   : Advanced Simple@L5
Format settings, BVOP            : Yes
Format settings, QPel            : No
Format settings, GMC             : No warppoints
Format settings, Matrix          : Default (H.263)
Muxing mode                      : Packed bitstream
Codec ID                         : XVID
Codec ID/Hint                    : XviD
Duration                         : 1h 34mn
Bit rate                         : 889 Kbps
Width                            : 624 pixels
Height                           : 352 pixels
Display aspect ratio             : 16:9
Frame rate                       : 23.976 fps
Color space                      : YUV
Chroma subsampling               : 4:2:0
Bit depth                        : 8 bits
Scan type                        : Progressive
Bits/(Pixel*Frame)               : 0.169
Stream size                      : 604 MiB (87%)
Writing library                  : XviD 1.2.1 (UTC 2008-12-04)
Audio
ID                               : 1
Format                           : MPEG Audio
Format version                   : Version 1
Format profile                   : Layer 3
Mode                             : Joint stereo
Mode extension                   : MS Stereo
Codec ID                         : 55
Codec ID/Hint                    : MP3
Duration                         : 1h 34mn
Bit rate mode                    : Variable
Bit rate                         : 128 Kbps
Channel(s)                       : 2 channels
Sampling rate                    : 48.0 KHz
Stream size                      : 84.3 MiB (12%)
Alignment                        : Aligned on interleaves
Interleave, duration             : 24 ms (0.58 video frame)
Interleave, preload duration     : 148 ms
Writing library                  : LAME3.90.
Encoding settings                : -m j -V 4 -q 2 -lowpass 17.6 --abr 128

Screen : 
http://imageshack.us/m/219/3136/fertileground2010s1.jpg 
http://imageshack.us/m/829/7195/fertileground2010s2.jpg 
http://imageshack.us/m/819/328/fertileground2010s3.jpg 
http://imageshack.us/m/815/8241/fertileground2010s4.jpg 
http://imageshack.us/m/861/4140/fertileground2010s5.jpg